<svg data-v-2cb57da0="" version="1.0" xmlns="http://www.w3.org/2000/svg" xmlns:xlink="http://www.w3.org/1999/xlink" 
width="169.67999267578125" height="58.290000915527344" viewBox="0 0 170 62" preserveAspectRatio="xMidYMid meet" 
color-interpolation-filters="sRGB">
  <g data-v-2cb57da0="" fill="#feffff" class="bordersvg b-d1" transform="translate(0,1)">
    <rect rx="10" ry="10" fill-opacity="0" stroke="#000000" 
    stroke-width="3" x="0" y="0" width="169.67999267578125" height="58.290000915527344"></rect>
    <g>
      <g>
        <rect data-gra="graph-name-bg"  stroke-width="2" class="i-icon-bg" x="0" y="0" width="169.67999267578125" 
        height="58.290000915527344" fill-opacity="0"></rect>
      </g>
      <g transform="translate(10,10)">
        <g data-gra="path-name" fill-rule="" class="tp-name">
          <g transform="scale(1)">
            <g>
              <path stroke="#000000" fill='#057748' d="M5.27-22.88L5.27-22.88 7.56-22.88Q8.82-22.88 9.58-21.36L9.58-21.36Q12.57-15.38 12.95-14.68L12.95-14.68Q13.07-14.59 13.21-14.59L13.21-14.59 13.33-14.59Q13.62-14.59 13.95-15.38L13.95-15.38Q17.11-21.62 17.37-22.06L17.37-22.06Q18.05-22.88 18.93-22.88L18.93-22.88 21.21-22.88 21.21-22.85Q15.15-10.99 15.09-10.75L15.09-10.75 15.09-10.63Q17.84-4.63 19.63-1.9L19.63-1.9Q20.45-0.76 21.5 0.35L21.5 0.35Q22.27 1.05 22.27 1.2L22.27 1.2Q22.18 1.61 21.86 1.61L21.86 1.61Q19.69 1.2 18.13 0L18.13 0Q16.85-1.05 16.49-1.64L16.49-1.64Q15.29-3.16 14.12-5.68L14.12-5.68Q13.59-6.74 13.48-6.77L13.48-6.77 13.33-6.8 13.24-6.8Q12.92-6.8 12.63-6.04L12.63-6.04Q11.13-3.08 10.25-1.82L10.25-1.82Q9.64-1.08 8.88-0.41L8.88-0.41Q7.76 0.5 7.03 0.82L7.03 0.82Q5.24 1.61 4.63 1.61L4.63 1.61 4.6 1.61Q4.34 1.61 4.25 1.26L4.25 1.26 4.25 1.23Q4.25 1.03 4.63 0.76L4.63 0.76Q6.91-1.38 8.5-4.51L8.5-4.51Q9.35-6.06 11.37-10.4L11.37-10.4Q11.4-10.4 11.46-10.66L11.46-10.66 11.46-10.69Q11.46-10.87 10.28-13.15L10.28-13.15Q5.27-22.82 5.27-22.88ZM33.08-36.36L33.08-36.36 34.45-36.36 34.45-20.57Q34.45-20.3 34.86-20.24L34.86-20.24 34.89-20.24Q35.1-20.24 35.65-20.92L35.65-20.92Q35.86-21.04 36.39-21.45L36.39-21.45Q38.32-22.68 40.96-22.68L40.96-22.68 41.13-22.68Q45.79-22.68 47.14-20.45L47.14-20.45Q48.13-19.07 48.13-16.32L48.13-16.32 48.13-9.84Q48.13-1.08 45.26 1.14L45.26 1.14Q44.56 1.7 44.24 1.7L44.24 1.7Q43.86 1.61 43.86 1.35L43.86 1.35 43.86 1.26Q43.86 1.2 44.24 0.53L44.24 0.53Q45.15-1.32 45.15-6.36L45.15-6.36 45.15-16.29Q45.15-19.28 43.48-20.07L43.48-20.07Q42.54-20.57 40.75-20.57L40.75-20.57 40.37-20.57Q36.65-20.57 35.13-18.34L35.13-18.34Q34.45-17.26 34.45-15.88L34.45-15.88 34.45-0.85Q34.45 1.32 33.05 1.7L33.05 1.7 31.38 1.7 31.38-34.04Q31.46-35.95 32.64-36.3L32.64-36.3Q32.75-36.36 33.08-36.36ZM66.21-23L66.21-23Q71.19-23 73.95-17.75L73.95-17.75Q75.56-14.41 75.56-10.43L75.56-10.43Q75.56-5.16 72.74-1.44L72.74-1.44Q70.11 1.7 66.42 1.7L66.42 1.7 66.01 1.7Q62.46 1.7 59.88-1.2L59.88-1.2Q56.98-4.83 56.98-10.37L56.98-10.37Q56.98-15.56 59.68-19.54L59.68-19.54Q60.41-20.39 60.88-20.86L60.88-20.86Q63.19-23 66.21-23ZM60.26-10.25L60.26-10.25Q60.26-5.07 62.55-1.93L62.55-1.93Q64.1-0.12 66.27-0.12L66.27-0.12Q69.14-0.12 70.87-3.52L70.87-3.52Q72.33-6.42 72.33-10.4L72.33-10.4 72.33-10.58Q72.33-15.62 70.08-19.01L70.08-19.01Q68.44-21.15 66.27-21.15L66.27-21.15 66.09-21.15Q63.66-21.15 61.93-17.99L61.93-17.99Q60.26-14.65 60.26-10.25ZM92.81-23L92.81-23Q97.79-23 100.55-17.75L100.55-17.75Q102.16-14.41 102.16-10.43L102.16-10.43Q102.16-5.16 99.35-1.44L99.35-1.44Q96.71 1.7 93.02 1.7L93.02 1.7 92.61 1.7Q89.06 1.7 86.48-1.2L86.48-1.2Q83.58-4.83 83.58-10.37L83.58-10.37Q83.58-15.56 86.28-19.54L86.28-19.54Q87.01-20.39 87.48-20.86L87.48-20.86Q89.79-23 92.81-23ZM86.87-10.25L86.87-10.25Q86.87-5.07 89.15-1.93L89.15-1.93Q90.7-0.12 92.87-0.12L92.87-0.12Q95.74-0.12 97.47-3.52L97.47-3.52Q98.94-6.42 98.94-10.4L98.94-10.4 98.94-10.58Q98.94-15.62 96.68-19.01L96.68-19.01Q95.04-21.15 92.87-21.15L92.87-21.15 92.7-21.15Q90.26-21.15 88.54-17.99L88.54-17.99Q86.87-14.65 86.87-10.25ZM112.5-36.59L112.5-36.59 113.44-36.59 113.44-10.72Q113.5-10.34 113.79-10.34L113.79-10.34 113.88-10.34Q114.14-10.34 114.61-11.07L114.61-11.07Q115.46-12.13 123.19-22.03L123.19-22.03Q123.9-22.88 124.8-22.88L124.8-22.88 127.15-22.88Q126.83-22.44 122.29-16.41L122.29-16.41Q120.7-14.38 120.7-14.27L120.7-14.27 120.67-14.21Q121.26-11.63 122.02-9.55L122.02-9.55Q123.87-4.69 126.86-0.79L126.86-0.79Q127.76 0.29 128.5 1.08L128.5 1.08 128.53 1.23Q128.44 1.61 128.14 1.61L128.14 1.61 128.06 1.61Q125.95 1.05 123.52-1.85L123.52-1.85Q121.52-4.48 120.73-6.24L120.73-6.24Q119.79-8.06 119-10.84L119-10.84Q118.92-11.16 118.59-11.16L118.59-11.16 118.51-11.16Q118.3-11.16 117.95-10.61L117.95-10.61Q113.85-5.77 113.47-5.21L113.47-5.21Q113.44-5.19 113.44-5.1L113.44-5.1 113.44-0.21Q113.44 1.17 111.74 1.67L111.74 1.67Q111.56 1.7 111.42 1.7L111.42 1.7 110.36 1.7 110.36-34.6Q110.36-35.98 111.77-36.5L111.77-36.5Q112.09-36.59 112.5-36.59ZM145.69-23.03L145.69-23.03 146.25-23.03Q149-23.03 151.05-21.42L151.05-21.42Q152.93-19.86 152.93-16.32L152.93-16.32 152.93-16.29 151.9-16.29Q150.62-16.29 149.97-17.49L149.97-17.49Q149.71-18.63 149.36-19.31L149.36-19.31Q148.27-20.68 146.19-20.68L146.19-20.68 145.93-20.68Q143.55-20.68 142.09-19.01L142.09-19.01Q141.59-18.16 141.59-17.34L141.59-17.34 141.59-17.2Q141.59-15 145.43-13.04L145.43-13.04Q149-11.22 149.85-10.72L149.85-10.72Q150.79-10.22 152.11-8.99L152.11-8.99Q153.93-7.06 153.93-4.86L153.93-4.86Q153.93-2.05 151.05 0.03L151.05 0.03Q148.39 1.7 145.02 1.7L145.02 1.7 144.58 1.7Q141.39 1.7 139.31-0.29L139.31-0.29Q137.84-1.9 137.84-3.96L137.84-3.96Q137.84-5.07 138.28-6.33L138.28-6.33Q138.4-6.47 138.66-6.53L138.66-6.53Q139.1-6.53 139.1-5.89L139.1-5.89Q139.16-4.42 139.98-2.78L139.98-2.78Q141.42-0.5 144.67-0.5L144.67-0.5 145.14-0.5Q148.21-0.5 150.06-2.49L150.06-2.49Q150.85-3.6 150.85-4.6L150.85-4.6 150.85-4.83Q150.85-7.71 145.63-10.11L145.63-10.11Q143.17-11.31 141.8-12.07L141.8-12.07Q138.72-14 138.72-16.76L138.72-16.76 138.72-17.14Q138.72-19.66 140.74-21.36L140.74-21.36Q142.97-23.03 145.69-23.03Z" transform="translate(-4.25, 36.59000015258789)"></path>
            </g>
          </g>
        </g>
      </g>
    </g>
  </g>
  <defs v-gra="od"></defs>
</svg>